HIERARCHY
ROOT Hips
{
  OFFSET 0.0000 0.0000 0.0000
  CHANNELS 6 Xposition Yposition Zposition Zrotation Xrotation Yrotation
  JOINT LeftHip
  {
    OFFSET 5.5000 0.0000 -0.0000
    CHANNELS 3 Zrotation Xrotation Yrotation
    JOINT LeftKnee
    {
      OFFSET 0.0000 -17.5000 0.0000
      CHANNELS 3 Zrotation Xrotation Yrotation
      JOINT LeftAnkle
      {
        OFFSET 0.0000 -17.0000 0.0000
        CHANNELS 3 Zrotation Xrotation Yrotation
        End Site
        {
            OFFSET 0.0000 -4.7000 -2.0000
        }
      }
    }
  }
  JOINT RightHip
  {
    OFFSET -5.5000 0.0000 -0.0000
    CHANNELS 3 Zrotation Xrotation Yrotation
    JOINT RightKnee
    {
      OFFSET 0.0000 -17.5000 0.0000
      CHANNELS 3 Zrotation Xrotation Yrotation
      JOINT RightAnkle
      {
        OFFSET 0.0000 -17.0000 0.0000
        CHANNELS 3 Zrotation Xrotation Yrotation
        End Site
        {
            OFFSET 0.0000 -4.7000 -2.0000
        }
      }
    }
  }
  JOINT Chest
  {
    OFFSET 0.0000 3.0000 -1.0000
    CHANNELS 3 Zrotation Xrotation Yrotation
    JOINT LeftCollar
    {
      OFFSET -0.0000 18.0000 1.0000
      CHANNELS 3 Zrotation Xrotation Yrotation
      JOINT LeftShoulder
      {
        OFFSET 6.5000 -0.0000 0.0000
        CHANNELS 3 Zrotation Xrotation Yrotation
        JOINT LeftElbow
        {
          OFFSET 0.0000 -11.0000 -0.0000
          CHANNELS 3 Zrotation Xrotation Yrotation
          JOINT LeftWrist
          {
            OFFSET 0.0000 -10.5000 0.0000
            CHANNELS 3 Zrotation Xrotation Yrotation
            End Site
            {
                OFFSET 0.0000 -6.0000 0.0000
            }
          }
        }
      }
    }
    JOINT RightCollar
    {
      OFFSET -0.0000 18.0000 1.0000
      CHANNELS 3 Zrotation Xrotation Yrotation
      JOINT RightShoulder
      {
        OFFSET -6.5000 0.0000 0.0000
        CHANNELS 3 Zrotation Xrotation Yrotation
        JOINT RightElbow
        {
          OFFSET 0.0000 -11.0000 0.0000
          CHANNELS 3 Zrotation Xrotation Yrotation
          JOINT RightWrist
          {
            OFFSET 0.0000 -10.5000 -0.0000
            CHANNELS 3 Zrotation Xrotation Yrotation
            End Site
            {
                OFFSET -0.0000 -6.0000 0.0000
            }
          }
        }
      }
    }
    JOINT Neck
    {
      OFFSET -0.0000 18.0000 1.0000
      CHANNELS 3 Zrotation Xrotation Yrotation
      JOINT Head
      {
        OFFSET 0.0000 3.0000 0.0000
        CHANNELS 3 Zrotation Xrotation Yrotation
        End Site
        {
            OFFSET 0.0000 7.0000 0.0000
        }
      }
    }
  }
}
MOTION
Frames:	20
Frame Time:	0.033333
-0.3412 35.0554 2.9414 -4.93 -21.99 -13.31 -0.22 2.87 6.38 -0.00 62.53 -5.20 6.58 -37.88 15.72 -2.44 -1.84 -4.32 -0.00 64.86 5.68 -5.25 -36.60 7.93 -0.26 7.35 2.70 0.00 0.00 0.00 34.98 -21.11 50.11 -0.00 -47.68 4.78 1.29 -45.23 -63.92 0.00 0.00 0.00 -30.20 -58.63 -21.16 0.00 -43.56 -2.09 -5.75 -32.67 56.82 0.00 0.00 0.00 11.14 -7.93 -6.75 
-0.3598 35.0475 3.0189 -4.93 -21.97 -13.29 -0.14 3.05 6.50 0.00 62.46 -5.16 6.53 -38.01 15.49 -2.36 -1.68 -4.20 -0.00 64.81 5.85 -5.41 -36.72 7.53 -0.30 7.39 2.85 0.00 0.00 0.00 34.68 -20.97 50.14 -0.00 -47.46 4.85 0.78 -45.53 -64.21 0.00 0.00 0.00 -30.09 -58.82 -20.55 -0.00 -43.32 -2.00 -6.21 -32.93 56.60 0.00 0.00 0.00 11.01 -7.78 -6.54 
-0.3856 35.0448 3.1180 -4.92 -21.95 -13.27 -0.05 3.28 6.62 0.00 62.37 -5.14 6.48 -38.16 15.27 -2.26 -1.47 -4.06 -0.00 64.74 6.01 -5.57 -36.87 7.12 -0.33 7.44 3.00 0.00 0.00 0.00 34.40 -20.86 50.10 -0.00 -47.30 4.85 0.47 -45.73 -64.32 0.00 0.00 0.00 -30.03 -58.86 -20.02 -0.00 -42.99 -1.94 -6.58 -33.39 56.35 0.00 0.00 0.00 10.85 -7.66 -6.45 
-0.4096 35.0416 3.2247 -4.91 -21.91 -13.23 0.04 3.51 6.73 0.00 62.25 -5.16 6.47 -38.31 15.10 -2.16 -1.24 -3.94 0.00 64.64 6.13 -5.70 -37.03 6.76 -0.37 7.51 3.13 0.00 0.00 0.00 34.14 -20.75 49.97 -0.00 -47.18 4.74 0.43 -45.85 -64.18 0.00 0.00 0.00 -30.00 -58.76 -19.58 -0.00 -42.58 -1.94 -6.81 -34.05 56.14 0.00 0.00 0.00 10.67 -7.52 -6.48 
-0.4156 35.0434 3.2524 -4.90 -21.87 -13.19 0.13 3.56 6.83 0.00 62.16 -5.22 6.49 -38.31 15.01 -2.08 -1.19 -3.84 -0.00 64.55 6.22 -5.78 -37.03 6.46 -0.40 7.58 3.24 0.00 0.00 0.00 33.91 -20.63 49.75 -0.00 -47.09 4.57 0.66 -45.93 -63.79 0.00 0.00 0.00 -29.97 -58.52 -19.23 -0.00 -42.13 -1.99 -6.88 -34.85 56.00 0.00 0.00 0.00 10.52 -7.33 -6.61 
-0.4138 35.0557 3.2634 -4.89 -21.81 -13.14 0.19 3.57 6.92 0.00 62.04 -5.32 6.55 -38.25 14.97 -2.00 -1.16 -3.75 -0.00 64.41 6.28 -5.83 -36.98 6.22 -0.42 7.66 3.33 0.00 0.00 0.00 33.69 -20.45 49.49 0.00 -47.00 4.38 1.01 -46.04 -63.28 0.00 0.00 0.00 -29.88 -58.21 -18.85 0.00 -41.70 -2.07 -6.88 -35.69 55.90 0.00 0.00 0.00 10.39 -7.09 -6.74 
-0.4113 35.0824 3.2826 -4.87 -21.73 -13.09 0.24 3.64 6.99 0.00 61.77 -5.43 6.61 -38.11 14.95 -1.94 -1.07 -3.68 0.00 64.12 6.34 -5.86 -36.86 6.01 -0.44 7.75 3.40 0.00 0.00 0.00 33.49 -20.23 49.23 0.00 -46.92 4.21 1.38 -46.16 -62.73 0.00 0.00 0.00 -29.75 -57.85 -18.44 0.00 -41.33 -2.15 -6.85 -36.51 55.84 0.00 0.00 0.00 10.27 -6.81 -6.86 
-0.4094 35.1277 3.2895 -4.85 -21.64 -13.03 0.29 3.69 7.05 0.00 61.47 -5.55 6.66 -37.94 14.94 -1.87 -1.00 -3.62 -0.00 63.80 6.39 -5.88 -36.71 5.82 -0.46 7.85 3.45 0.00 0.00 0.00 33.29 -20.00 48.98 0.00 -46.88 4.10 1.71 -46.24 -62.26 0.00 0.00 0.00 -29.62 -57.48 -18.05 0.00 -41.06 -2.24 -6.78 -37.21 55.81 0.00 0.00 0.00 10.16 -6.54 -6.97 
-0.4062 35.1782 3.3436 -4.82 -21.53 -12.97 0.31 3.84 7.11 -0.00 61.07 -5.67 6.73 -37.80 14.96 -1.83 -0.83 -3.56 -0.00 63.40 6.44 -5.87 -36.60 5.66 -0.48 7.96 3.50 0.00 0.00 0.00 33.12 -19.76 48.74 0.00 -46.87 4.00 2.05 -46.27 -61.76 0.00 0.00 0.00 -29.46 -57.12 -17.65 0.00 -40.87 -2.35 -6.66 -37.82 55.86 0.00 0.00 0.00 10.06 -6.26 -7.04 
-0.4499 35.2304 3.3602 -4.78 -21.40 -12.90 0.42 3.89 7.11 0.00 60.77 -5.78 6.67 -37.66 14.89 -1.70 -0.75 -3.56 -0.00 63.06 6.52 -6.02 -36.46 5.39 -0.49 8.07 3.55 0.00 0.00 0.00 32.97 -19.52 48.49 0.00 -46.89 3.90 2.41 -46.27 -61.25 0.00 0.00 0.00 -29.26 -56.77 -17.24 0.00 -40.73 -2.48 -6.51 -38.36 56.00 0.00 0.00 0.00 9.99 -5.95 -7.07 
-0.4820 35.2798 3.3444 -4.75 -21.26 -12.82 0.53 3.87 7.11 0.00 60.43 -5.88 6.61 -37.43 14.83 -1.57 -0.73 -3.56 -0.00 62.68 6.61 -6.15 -36.23 5.11 -0.50 8.18 3.59 0.00 0.00 0.00 32.84 -19.27 48.23 -0.00 -46.92 3.81 2.79 -46.26 -60.72 0.00 0.00 0.00 -29.02 -56.43 -16.84 0.00 -40.65 -2.61 -6.33 -38.83 56.19 0.00 0.00 0.00 9.93 -5.64 -7.07 
-0.4977 35.3464 3.3267 -4.70 -21.10 -12.75 0.60 3.88 7.13 0.00 59.93 -5.99 6.57 -37.10 14.77 -1.47 -0.67 -3.54 -0.00 62.13 6.72 -6.24 -35.91 4.84 -0.52 8.30 3.63 0.00 0.00 0.00 32.71 -19.02 47.95 0.00 -46.95 3.73 3.19 -46.27 -60.18 0.00 0.00 0.00 -28.76 -56.08 -16.42 -0.00 -40.62 -2.75 -6.15 -39.27 56.40 0.00 0.00 0.00 9.89 -5.30 -7.06 
-0.4989 35.4406 3.3130 -4.66 -20.92 -12.67 0.63 3.97 7.16 0.00 59.21 -6.11 6.55 -36.65 14.73 -1.39 -0.54 -3.52 -0.00 61.39 6.85 -6.28 -35.47 4.61 -0.53 8.44 3.65 0.00 0.00 0.00 32.59 -18.75 47.61 0.00 -47.01 3.64 3.69 -46.28 -59.53 0.00 0.00 0.00 -28.42 -55.68 -15.96 -0.00 -40.57 -2.89 -5.97 -39.78 56.64 0.00 0.00 0.00 9.86 -4.89 -7.05 
-0.5307 35.5678 3.3290 -4.60 -20.71 -12.58 0.68 4.22 7.16 0.00 58.20 -6.22 6.44 -36.11 14.65 -1.27 -0.24 -3.52 -0.00 60.36 6.98 -6.35 -34.95 4.34 -0.54 8.60 3.67 0.00 0.00 0.00 32.47 -18.46 47.22 -0.00 -47.09 3.55 4.29 -46.32 -58.79 0.00 0.00 0.00 -28.04 -55.23 -15.49 0.00 -40.52 -3.04 -5.79 -40.36 56.88 0.00 0.00 0.00 9.84 -4.42 -7.10 
-0.5823 35.7322 3.3369 -4.55 -20.47 -12.50 0.75 4.54 7.13 -0.00 56.94 -6.34 6.26 -35.42 14.52 -1.10 0.14 -3.55 -0.00 59.07 7.15 -6.46 -34.27 4.05 -0.54 8.78 3.68 0.00 0.00 0.00 32.32 -18.15 46.77 -0.00 -47.16 3.50 4.91 -46.43 -58.05 0.00 0.00 0.00 -27.63 -54.77 -14.99 -0.00 -40.50 -3.19 -5.63 -40.95 57.12 0.00 0.00 0.00 9.79 -3.90 -7.17 
-0.6649 35.9333 3.3213 -4.48 -20.19 -12.41 0.87 4.89 7.07 -0.00 55.46 -6.44 5.96 -34.59 14.34 -0.87 0.56 -3.61 -0.00 57.54 7.34 -6.64 -33.42 3.71 -0.56 8.99 3.69 0.00 0.00 0.00 32.12 -17.80 46.27 0.00 -47.21 3.47 5.61 -46.66 -57.24 0.00 0.00 0.00 -27.20 -54.26 -14.46 0.00 -40.47 -3.31 -5.56 -41.60 57.26 0.00 0.00 0.00 9.72 -3.31 -7.23 
-0.7747 36.1635 3.2783 -4.41 -19.87 -12.31 1.05 5.22 6.98 -0.00 53.85 -6.52 5.57 -33.64 14.09 -0.58 0.96 -3.70 0.00 55.86 7.59 -6.87 -32.44 3.30 -0.57 9.22 3.70 0.00 0.00 0.00 31.91 -17.39 45.76 0.00 -47.25 3.43 6.35 -46.99 -56.33 0.00 0.00 0.00 -26.67 -53.73 -13.80 -0.00 -40.45 -3.43 -5.60 -42.32 57.36 0.00 0.00 0.00 9.64 -2.67 -7.21 
-0.8093 36.3975 3.1693 -4.33 -19.51 -12.21 1.14 5.25 6.99 -0.00 52.48 -6.59 5.33 -32.68 13.89 -0.39 1.08 -3.72 -0.00 54.40 7.86 -7.00 -31.44 2.90 -0.59 9.49 3.71 0.00 0.00 0.00 31.71 -16.94 45.19 -0.00 -47.35 3.37 7.19 -47.30 -55.28 0.00 0.00 0.00 -26.08 -53.16 -13.09 -0.00 -40.42 -3.54 -5.68 -43.11 57.47 0.00 0.00 0.00 9.60 -2.00 -7.17 
-0.9335 36.6116 3.0830 -4.24 -19.10 -12.10 1.38 5.36 6.93 -0.00 51.00 -6.62 4.88 -31.75 13.54 -0.04 1.28 -3.79 0.00 52.81 8.20 -7.31 -30.42 2.34 -0.61 9.79 3.73 0.00 0.00 0.00 31.50 -16.44 44.56 -0.00 -47.46 3.33 8.10 -47.68 -54.12 0.00 0.00 0.00 -25.45 -52.51 -12.35 0.00 -40.37 -3.62 -5.86 -44.00 57.51 0.00 0.00 0.00 9.58 -1.27 -7.13 
-0.9637 36.8297 2.9656 -4.14 -18.63 -11.97 1.49 5.30 6.99 0.00 49.57 -6.65 4.63 -30.75 13.24 0.16 1.31 -3.76 0.00 51.28 8.55 -7.43 -29.37 1.83 -0.63 10.13 3.77 0.00 0.00 0.00 31.29 -15.92 43.93 -0.00 -47.58 3.35 8.96 -48.11 -52.99 0.00 0.00 0.00 -24.79 -51.84 -11.57 0.00 -40.36 -3.68 -6.15 -44.91 57.50 0.00 0.00 0.00 9.58 -0.41 -7.07 
